<?xml version="1.0" encoding="UTF-8"?>
<!DOCTYPE svg PUBLIC "-//W3C//DTD SVG 1.1//EN" "http://www.w3.org/Graphics/SVG/1.1/DTD/svg11.dtd">
<svg xmlns="http://www.w3.org/2000/svg" version="1.1" width="83px" height="64px" style="shape-rendering:geometricPrecision; text-rendering:geometricPrecision; image-rendering:optimizeQuality; fill-rule:evenodd; clip-rule:evenodd" xmlns:xlink="http://www.w3.org/1999/xlink">
<g><path style="opacity:0.999" fill="#111b0b" d="M 42.5,3.5 C 49.149,4.83192 54.4824,8.16526 58.5,13.5C 54.7886,12.1643 51.1219,10.831 47.5,9.5C 45.6264,8.71482 43.6264,8.04816 41.5,7.5C 32.1145,6.94548 23.4479,8.94548 15.5,13.5C 10.9108,15.1243 7.57746,18.1243 5.5,22.5C 4.95691,22.44 4.62358,22.1067 4.5,21.5C 12.868,6.3151 25.5347,0.3151 42.5,3.5 Z"/></g>
<g><path style="opacity:1" fill="#6aee1d" d="M 26.5,4.5 C 31.1785,4.33418 35.8452,4.50085 40.5,5C 32.8518,5.10696 25.5185,6.60696 18.5,9.5C 17.3044,9.15431 17.3044,8.65431 18.5,8C 21.3093,6.9066 23.976,5.73993 26.5,4.5 Z"/></g>
<g><path style="opacity:0.008" fill="#fcfefc" d="M 74.5,5.5 C 73.8333,4.16667 73.8333,4.16667 74.5,5.5 Z"/></g>
<g><path style="opacity:1" fill="#c4f322" d="M 41.5,0.5 C 50.0413,1.60414 56.3746,5.93748 60.5,13.5C 60.0623,14.5063 59.3957,14.5063 58.5,13.5C 54.4824,8.16526 49.149,4.83192 42.5,3.5C 42.4431,2.39105 42.1098,1.39105 41.5,0.5 Z"/></g>
<g><path style="opacity:0.329" fill="#c2d891" d="M 41.5,7.5 C 43.6264,8.04816 45.6264,8.71482 47.5,9.5C 43.1667,9.5 38.8333,9.5 34.5,9.5C 36.8333,8.83333 39.1667,8.16667 41.5,7.5 Z"/></g>
<g><path style="opacity:1" fill="#d6f237" d="M 41.5,7.5 C 39.1667,8.16667 36.8333,8.83333 34.5,9.5C 28.2413,10.473 22.5747,12.8064 17.5,16.5C 16.8333,15.5 16.1667,14.5 15.5,13.5C 23.4479,8.94548 32.1145,6.94548 41.5,7.5 Z"/></g>
<g><path style="opacity:0.408" fill="#aec287" d="M 58.5,13.5 C 59.3957,14.5063 60.0623,14.5063 60.5,13.5C 62.0878,14.6353 62.4212,15.9686 61.5,17.5C 60.0656,16.4116 59.0656,15.0783 58.5,13.5 Z"/></g>
<g><path style="opacity:1" fill="#fcfc6f" d="M 66.5,26.5 C 66.5,26.8333 66.5,27.1667 66.5,27.5C 65.8333,27.5 65.5,27.8333 65.5,28.5C 61.8878,29.5114 58.2211,29.6781 54.5,29C 51.257,27.5304 47.9237,26.3637 44.5,25.5C 41.4303,26.7054 38.4303,28.2054 35.5,30C 33.1902,30.4966 30.8568,30.6633 28.5,30.5C 28.5,29.8333 28.1667,29.5 27.5,29.5C 28.5981,28.603 28.5981,27.7697 27.5,27C 30.473,24.027 33.473,21.027 36.5,18C 38,17.8333 39.5,17.6667 41,17.5C 45.4039,18.5175 49.7373,18.5175 54,17.5C 56.7822,21.3063 60.6155,23.1397 65.5,23C 66.3366,24.0113 66.67,25.1779 66.5,26.5 Z"/></g>
<g><path style="opacity:1" fill="#94e90e" d="M 15.5,13.5 C 16.1667,14.5 16.8333,15.5 17.5,16.5C 14.4503,18.5491 12.117,21.2157 10.5,24.5C 8.42447,23.729 6.7578,23.0624 5.5,22.5C 7.57746,18.1243 10.9108,15.1243 15.5,13.5 Z"/></g>
<g><path style="opacity:1" fill="#57cb11" d="M 74.5,5.5 C 79.5386,9.58324 81.8719,14.9166 81.5,21.5C 79.8183,29.5244 75.1517,35.1911 67.5,38.5C 68.8333,36.8333 70.1667,35.1667 71.5,33.5C 77.7768,25.8851 79.1101,17.5517 75.5,8.5C 74.8902,7.60895 74.5569,6.60895 74.5,5.5 Z"/></g>
<g><path style="opacity:1" fill="#fcfd79" d="M 75.5,8.5 C 79.1101,17.5517 77.7768,25.8851 71.5,33.5C 69.1789,33.3417 67.3455,32.3417 66,30.5C 65.3292,31.2524 64.4959,31.5858 63.5,31.5C 63.5,31.1667 63.5,30.8333 63.5,30.5C 64.5,30.1667 65.1667,29.5 65.5,28.5C 66.1667,28.5 66.5,28.1667 66.5,27.5C 67.8333,27.1667 67.8333,26.8333 66.5,26.5C 66.67,25.1779 66.3366,24.0113 65.5,23C 60.6155,23.1397 56.7822,21.3063 54,17.5C 49.7373,18.5175 45.4039,18.5175 41,17.5C 39.5,17.6667 38,17.8333 36.5,18C 33.473,21.027 30.473,24.027 27.5,27C 28.5981,27.7697 28.5981,28.603 27.5,29.5C 26.2121,27.9652 26.2121,26.2985 27.5,24.5C 30.3174,22.1833 32.9841,19.6833 35.5,17C 40.3341,16.1665 45.1674,15.3332 50,14.5C 54.1132,15.3074 57.9465,16.8074 61.5,19C 66.0722,20.0759 70.2389,19.2425 74,16.5C 75.2525,13.9865 75.7525,11.3198 75.5,8.5 Z"/></g>
<g><path style="opacity:1" fill="#0f170e" d="M 8.5,27.5 C 7.16667,29.1667 7.16667,30.8333 8.5,32.5C 7.77842,32.9175 7.27842,33.5842 7,34.5C 6.66667,37.5 6.33333,40.5 6,43.5C 5.33881,38.4424 5.67215,33.4424 7,28.5C 7.38258,27.944 7.88258,27.6107 8.5,27.5 Z"/></g>
<g><path style="opacity:0.084" fill="#e9ead5" d="M 63.5,30.5 C 63.5,30.8333 63.5,31.1667 63.5,31.5C 59.7307,31.244 56.0641,31.5773 52.5,32.5C 55.6843,30.5864 59.351,29.9197 63.5,30.5 Z"/></g>
<g><path style="opacity:1" fill="#fdfe6d" d="M 71.5,33.5 C 70.1667,35.1667 68.8333,36.8333 67.5,38.5C 63.4493,38.9981 59.9493,38.9981 57,38.5C 57.1346,41.9383 55.9679,44.7717 53.5,47C 54.1667,47.3333 54.8333,47.6667 55.5,48C 54.1772,48.8159 53.5106,49.9826 53.5,51.5C 53.1667,51.5 52.8333,51.5 52.5,51.5C 50.7816,50.776 48.9483,50.1094 47,49.5C 46.6667,50.1667 46.3333,50.8333 46,51.5C 45.7996,49.6803 44.9663,48.347 43.5,47.5C 42.5987,46.7095 41.9321,45.7095 41.5,44.5C 45.1949,40.4741 48.8616,36.4741 52.5,32.5C 56.0641,31.5773 59.7307,31.244 63.5,31.5C 64.4959,31.5858 65.3292,31.2524 66,30.5C 67.3455,32.3417 69.1789,33.3417 71.5,33.5 Z"/></g>
<g><path style="opacity:1" fill="#161a12" d="M 25.5,37.5 C 26.3414,39.3792 26.6747,41.3792 26.5,43.5C 25.2395,40.1615 24.2395,36.6615 23.5,33C 23.8333,32.8333 24.1667,32.6667 24.5,32.5C 25.4519,34.0453 25.7852,35.712 25.5,37.5 Z"/></g>
<g><path style="opacity:1" fill="#f4f973" d="M 81.5,21.5 C 81.6641,24.1873 81.4974,26.854 81,29.5C 79.8553,31.9258 78.522,34.2591 77,36.5C 68.9174,41.1238 61.084,46.1238 53.5,51.5C 53.5106,49.9826 54.1772,48.8159 55.5,48C 54.8333,47.6667 54.1667,47.3333 53.5,47C 55.9679,44.7717 57.1346,41.9383 57,38.5C 59.9493,38.9981 63.4493,38.9981 67.5,38.5C 75.1517,35.1911 79.8183,29.5244 81.5,21.5 Z"/></g>
<g><path style="opacity:1" fill="#eff292" d="M 28.5,30.5 C 29.1667,31.5 29.8333,32.5 30.5,33.5C 29.4168,33.4606 28.4168,33.1272 27.5,32.5C 26.8302,34.2914 26.1635,35.9581 25.5,37.5C 25.7852,35.712 25.4519,34.0453 24.5,32.5C 24.1667,32.6667 23.8333,32.8333 23.5,33C 24.2395,36.6615 25.2395,40.1615 26.5,43.5C 26.5,44.8333 26.5,46.1667 26.5,47.5C 24.368,47.4456 23.0347,46.4456 22.5,44.5C 22.2041,42.597 21.5375,40.9303 20.5,39.5C 20.5,40.8333 20.5,42.1667 20.5,43.5C 18.8267,42.657 17.66,41.3237 17,39.5C 15.099,35.6429 14.099,31.6429 14,27.5C 15.5874,26.273 16.9207,26.6063 18,28.5C 19.4823,26.2189 21.149,26.2189 23,28.5C 23.3333,29.5 23.6667,30.5 24,31.5C 25.3561,30.6198 26.8561,30.2865 28.5,30.5 Z"/></g>
<g><path style="opacity:1" fill="#0a0b08" d="M 20.5,39.5 C 18.9119,37.4727 18.4119,35.1394 19,32.5C 19.977,34.74 20.477,37.0733 20.5,39.5 Z"/></g>
<g><path style="opacity:1" fill="#1a2113" d="M 30.5,35.5 C 30.8333,35.5 31.1667,35.5 31.5,35.5C 32.6019,40.4087 33.9352,45.242 35.5,50C 35.2716,50.3988 34.9382,50.5654 34.5,50.5C 34.1667,50.5 33.8333,50.5 33.5,50.5C 32.1168,45.5842 31.1168,40.5842 30.5,35.5 Z"/></g>
<g><path style="opacity:1" fill="#f8fa7b" d="M 40.5,44.5 C 40.795,46.4233 41.6283,48.0899 43,49.5C 43.4643,48.9056 43.631,48.2389 43.5,47.5C 44.9663,48.347 45.7996,49.6803 46,51.5C 46.3333,50.8333 46.6667,50.1667 47,49.5C 48.9483,50.1094 50.7816,50.776 52.5,51.5C 48.2587,54.2541 43.592,55.0874 38.5,54C 36.6763,53.34 35.343,52.1733 34.5,50.5C 34.9382,50.5654 35.2716,50.3988 35.5,50C 33.9352,45.242 32.6019,40.4087 31.5,35.5C 32.9464,34.3871 34.6131,34.2204 36.5,35C 38.8115,37.7347 40.1448,40.9013 40.5,44.5 Z"/></g>
<g><path style="opacity:1" fill="#171d14" d="M 20.5,39.5 C 21.5375,40.9303 22.2041,42.597 22.5,44.5C 21.8333,44.1667 21.1667,43.8333 20.5,43.5C 20.5,42.1667 20.5,40.8333 20.5,39.5 Z"/></g>
<g><path style="opacity:1" fill="#f7f979" d="M 30.5,33.5 C 30.5,34.1667 30.5,34.8333 30.5,35.5C 31.1168,40.5842 32.1168,45.5842 33.5,50.5C 30.6874,50.9754 28.6874,49.9754 27.5,47.5C 27.9382,47.5654 28.2716,47.3988 28.5,47C 27.9152,45.6976 27.2485,44.531 26.5,43.5C 26.6747,41.3792 26.3414,39.3792 25.5,37.5C 26.1635,35.9581 26.8302,34.2914 27.5,32.5C 28.4168,33.1272 29.4168,33.4606 30.5,33.5 Z"/></g>
<g><path style="opacity:1" fill="#5bdd32" d="M 32.5,-0.5 C 34.5,-0.5 36.5,-0.5 38.5,-0.5C 39.209,0.403972 40.209,0.737305 41.5,0.5C 42.1098,1.39105 42.4431,2.39105 42.5,3.5C 25.5347,0.3151 12.868,6.3151 4.5,21.5C 4.62358,22.1067 4.95691,22.44 5.5,22.5C 6.7578,23.0624 8.42447,23.729 10.5,24.5C 9.83333,25.5 9.16667,26.5 8.5,27.5C 7.88258,27.6107 7.38258,27.944 7,28.5C 5.67215,33.4424 5.33881,38.4424 6,43.5C 6.33333,40.5 6.66667,37.5 7,34.5C 7.27842,33.5842 7.77842,32.9175 8.5,32.5C 6.79732,46.5961 12.464,56.4294 25.5,62C 12.4273,60.5309 4.26067,53.3642 1,40.5C -0.635788,17.3218 9.86421,3.65512 32.5,-0.5 Z"/></g>
<g><path style="opacity:1" fill="#22321e" d="M 26.5,43.5 C 27.2485,44.531 27.9152,45.6976 28.5,47C 28.2716,47.3988 27.9382,47.5654 27.5,47.5C 27.1667,47.5 26.8333,47.5 26.5,47.5C 26.5,46.1667 26.5,44.8333 26.5,43.5 Z"/></g>
<g><path style="opacity:0.986" fill="#0c100b" d="M 40.5,44.5 C 40.8333,44.5 41.1667,44.5 41.5,44.5C 41.9321,45.7095 42.5987,46.7095 43.5,47.5C 43.631,48.2389 43.4643,48.9056 43,49.5C 41.6283,48.0899 40.795,46.4233 40.5,44.5 Z"/></g>
</svg>
